<?xml version="1.0" standalone="no"?>
<!DOCTYPE svg PUBLIC "-//W3C//DTD SVG 20010904//EN"
 "http://www.w3.org/TR/2001/REC-SVG-20010904/DTD/svg10.dtd">
<svg version="1.0" xmlns="http://www.w3.org/2000/svg"
 width="313.000000pt" height="313.000000pt" viewBox="0 0 313.000000 313.000000"
 preserveAspectRatio="xMidYMid meet">
<metadata>
Created by potrace 1.11, written by Peter Selinger 2001-2013
</metadata>
<g transform="translate(0.000000,313.000000) scale(0.100000,-0.100000)"
fill="#000000" stroke="none">
<path d="M1370 3114 c-257 -33 -474 -117 -695 -268 -81 -55 -243 -205 -321
-296 -101 -118 -252 -401 -279 -522 -2 -13 -13 -58 -24 -100 -11 -42 -22 -98
-26 -125 -4 -26 -9 -61 -11 -78 -5 -36 -5 -244 0 -300 12 -127 48 -286 89
-397 24 -63 95 -213 120 -253 171 -275 380 -468 654 -604 107 -54 264 -110
351 -127 130 -25 215 -33 337 -34 124 -1 170 4 335 34 90 16 270 82 377 136
392 201 675 549 793 974 12 43 24 91 26 105 3 14 6 31 9 38 17 51 25 332 11
443 -4 36 -9 76 -11 90 -20 176 -158 506 -272 650 -149 189 -236 272 -404 385
-306 207 -689 297 -1059 249z"/>
</g>
</svg>
